{"title":"Big.Love.S04E03.HDTV.XviD-FOON","uid":5307872,"size":519048624,"categoryP":"video","categoryS":"tv_shows","magnet":"?xt=urn:btih:9b6c627d7620f26bcf51a1477825b177e043a35f&amp;dn=Big.Love.S04E03.HDTV.XviD-FOON&amp;tr=udp%3A%2F%2Ftracker.openbittorrent.com%3A80&amp;tr=udp%3A%2F%2Fopen.demonii.com%3A1337&amp;tr=udp%3A%2F%2Ftracker.coppersurfer.tk%3A6969&amp;tr=udp%3A%2F%2Fexodus.desync.com%3A6969","seeders":0,"leechers":0,"uploader":"courage1","files":1,"time":1264459803,"description":"General\nComplete name                    : big.love.s04e03.hdtv.xvid-foon.avi\nFormat                           : AVI\nFormat/Info                      : Audio Video Interleave\nFile size                        : 495 MiB\nDuration                         : 58mn 55s\nOverall bit rate                 : 1 175 Kbps\n\nVideo\nID                               : 0\nFormat                           : MPEG-4 Visual\nFormat profile                   : Simple@L1\nFormat settings, BVOP            : No\nFormat settings, QPel            : No\nFormat settings, GMC             : No warppoints\nFormat settings, Matrix          : Default (H.263)\nCodec ID                         : DX50\nCodec ID/Hint                    : DivX 5\nDuration                         : 58mn 55s\nBit rate                         : 1 002 Kbps\nWidth                            : 624 pixels\nHeight                           : 352 pixels\nDisplay aspect ratio             : 16:9\nFrame rate                       : 23.976 fps\nResolution                       : 8 bits\nColorimetry                      : 4:2:0\nScan type                        : Progressive\nBits/(Pixel*Frame)               : 0.190\nStream size                      : 422 MiB (85%)\nWriting library                  : Lavc52.0.0\n\nAudio\nID                               : 1\nFormat                           : MPEG Audio\nFormat version                   : Version 1\nFormat profile                   : Layer 3\nMode                             : Joint stereo\nFormat_Settings_ModeExtension    : MS Stereo\nCodec ID                         : 55\nCodec ID/Hint                    : MP3\nDuration                         : 58mn 55s\nBit rate mode                    : Constant\nBit rate                         : 160 Kbps\nChannel(s)                       : 2 channels\nSampling rate                    : 48.0 KHz\nStream size                      : 67.4 MiB (14%)\nAlignment                        : Split accross interleaves\nInterleave, duration             : 24 ms (0.58 video frame)\nInterleave, preload duration     : 1967 ms","torrent":{"xt":"urn:btih:9b6c627d7620f26bcf51a1477825b177e043a35f","amp;dn":"Big.Love.S04E03.HDTV.XviD-FOON","amp;tr":["udp%3A%2F%2Ftracker.openbittorrent.com%3A80","udp%3A%2F%2Fopen.demonii.com%3A1337","udp%3A%2F%2Ftracker.coppersurfer.tk%3A6969","udp%3A%2F%2Fexodus.desync.com%3A6969"],"infoHash":"9b6c627d7620f26bcf51a1477825b177e043a35f","infoHashBuffer":{"type":"Buffer","data":[155,108,98,125,118,32,242,107,207,81,161,71,120,37,177,119,224,67,163,95]},"announce":[],"urlList":[]}}